#!OML:ASF I:\Actors\actors\Patient Classification 1\Patient 1\Session 1\Subject1.ASF
:FULLY-SPECIFIED
:DEGREES
258
root 0.0488461 17.6025 7.99038 13.7356 9.05305 -11.8085
lowerback 11.1346 3.09924 2.57093
upperback 0.00568603 4.2394 -3.35912
thorax -5.79097 1.9635 -5.66079
lowerneck -13.9047 1.90812 3.06387
upperneck 42.0601 0.0146289 5.64537
head 18.0755 1.33377 2.11762
rclavicle -5.08889e-014 -1.11319e-014
rhumerus -34.826 0.667528 -92.7332
rradius 40.5794
rwrist 16.4676
rhand 7.94144 -36.4386
rfingers 7.12502
rthumb 33.1714 -63.4025
lclavicle -5.08889e-014 -1.11319e-014
lhumerus -31.8756 7.35871 80.1965
lradius 35.6495
lwrist 4.70634
lhand -17.8508 -7.26754
lfingers 7.12502
lthumb 8.41436 22.5448
rfemur -8.87568 28.0154 24.7611
rtibia 0.298913
rfoot -16.9927 -35.1444
rtoes 13.3406
lfemur -11.5633 -47.289 5.43209
ltibia -4.08154
lfoot -14.3979 53.1219
ltoes 9.49656
259
root 0.0784316 17.6017 8.0039 13.6329 9.53939 -12.2433
lowerback 11.4374 3.06371 2.66122
upperback 0.0172016 4.20781 -3.34191
thorax -5.94716 1.94008 -5.71227
lowerneck -13.6113 2.0018 3.29573
upperneck 41.7195 0.0565415 5.79147
head 17.7996 1.40172 2.12544
rclavicle 2.62396e-014 0
rhumerus -34.9062 0.893784 -93.1473
rradius 40.6714
rwrist 16.806
rhand 7.60957 -36.624
rfingers 7.12502
rthumb 32.8557 -63.6546
lclavicle 2.62396e-014 0
lhumerus -31.9704 7.25343 79.9874
lradius 35.7462
lwrist 4.82352
lhand -18.0032 -7.25065
lfingers 7.12502
lthumb 8.26729 22.5676
rfemur -8.68507 28.0926 25.2767
rtibia 0.253878
rfoot -17.222 -35.5425
rtoes 13.3734
lfemur -11.6684 -46.582 5.87044
ltibia -4.18451
lfoot -12.5496 52.2658
ltoes 7.63947
260
root 0.112328 17.593 8.01488 13.2239 10.1975 -13.364
lowerback 11.949 2.94057 3.53654
upperback 0.0539357 4.18502 -3.13032
thorax -6.15177 1.89854 -6.0173
lowerneck -13.4163 2.08549 3.43352
upperneck 41.4851 0.102644 5.94839
head 17.614 1.45908 2.16372
rclavicle -2.38542e-015 -1.43125e-014
rhumerus -34.9954 0.358115 -93.2859
rradius 40.795
rwrist 17.8314
rhand 7.59925 -36.1726
rfingers 7.12502
rthumb 32.8459 -63.2052
lclavicle -2.38542e-015 -1.43125e-014
lhumerus -32.0007 7.38981 79.7252
lradius 35.679
lwrist 4.77373
lhand -18.0901 -7.44264
lfingers 7.12502
lthumb 8.18336 22.3789
rfemur -8.25894 27.9257 26.7332
rtibia 0.269426
rfoot -17.4159 -35.7258
rtoes 13.3156
lfemur -11.4387 -45.6413 6.86669
ltibia -4.45
lfoot -10.7048 51.1276
ltoes 5.49352
261
root 0.152483 17.5955 8.03057 13.5232 10.5685 -13.1401
lowerback 12.0074 3.00848 3.14748
upperback 0.0313192 4.20843 -3.33687
thorax -6.21781 1.91591 -6.0273
lowerneck -13.4598 2.07664 3.34402
upperneck 41.2884 -0.00291138 6.2792
head 17.5175 1.4475 2.30451
rclavicle 1.43125e-014 3.97569e-014
rhumerus -35.036 -1.78443 -92.8794
rradius 41.2371
rwrist 19.7515
rhand 7.98404 -35.6438
rfingers 7.12502
rthumb 33.2119 -62.5991
lclavicle 1.43125e-014 3.97569e-014
lhumerus -31.7664 7.34398 79.6102
lradius 35.4761
lwrist 4.64187
lhand -18.0648 -7.64024
lfingers 7.12502
lthumb 8.20777 22.1803
rfemur -8.49992 27.5559 26.271
rtibia 0.273481
rfoot -17.6215 -35.7312
rtoes 13.1712
lfemur -12.0052 -46.1002 6.89048
ltibia -4.35761
lfoot -10.5885 51.3043
ltoes 5.38524
262
root 0.183377 17.6003 8.05368 13.7822 10.8757 -12.9771
lowerback 11.9983 3.12515 2.58902
upperback 0.0183698 4.27401 -3.5006
thorax -6.24642 1.96141 -5.89612
lowerneck -13.4629 2.10183 3.48209
upperneck 41.1758 -0.0526169 6.42538
head 17.4609 1.46955 2.33265
rclavicle -1.90833e-014 0
rhumerus -34.9918 0.0142055 -93.6033
rradius 41.0595
rwrist 17.4253
rhand 7.19 -35.8299
rfingers 7.12502
rthumb 32.4565 -62.9433
lclavicle -1.90833e-014 0
lhumerus -31.6235 7.17507 79.49
lradius 35.4135
lwrist 4.64499
lhand -18.0941 -7.53931
lfingers 7.12502
lthumb 8.17952 22.2824
rfemur -8.70837 27.8069 25.868
rtibia 0.297802
rfoot -18.174 -36.1749
rtoes 13.6967
lfemur -12.5016 -46.4188 7.02667
ltibia -4.34046
lfoot -10.5331 51.406
ltoes 5.3881
263
root 0.212908 17.6052 8.07929 13.9886 11.2107 -12.9015
lowerback 11.9592 3.15402 1.93262
upperback 0.00574936 4.21525 -3.57031
thorax -6.28659 1.94993 -5.58725
lowerneck -13.2489 2.20265 3.70394
upperneck 40.9372 0.0258177 6.51222
head 17.2723 1.54223 2.32666
rclavicle 2.46493e-014 -4.77083e-015
rhumerus -35.0761 0.746331 -94.0789
rradius 41.1662
rwrist 16.5316
rhand 7.52684 -36.0234
rfingers 7.12502
rthumb 32.777 -63.0704
lclavicle 2.46493e-014 -4.77083e-015
lhumerus -31.6575 7.26304 79.2703
lradius 35.4961
lwrist 4.72922
lhand -18.1444 -7.45238
lfingers 7.12502
lthumb 8.13097 22.3712
rfemur -8.82772 28.2641 25.5899
rtibia 0.282724
rfoot -18.8972 -36.7671
rtoes 14.5414
lfemur -12.9307 -46.8355 7.26309
ltibia -4.38944
lfoot -10.3197 51.6011
ltoes 5.20551
264
root 0.258823 17.6024 8.09276 14.0059 11.8406 -13.2411
lowerback 12.1503 3.03095 2.11173
upperback 0.0431214 4.08045 -3.52881
thorax -6.35897 1.87688 -5.6359
lowerneck -13.1237 2.29675 3.61899
upperneck 40.6397 0.09573 6.82582
head 17.0711 1.59444 2.47558
rclavicle 3.26007e-014 3.33958e-014
rhumerus -35.0933 0.951208 -94.3116
rradius 41.2767
rwrist 16.6118
rhand 7.85434 -36.0149
rfingers 7.12502
rthumb 33.0885 -62.9964
lclavicle 3.26007e-014 3.33958e-014
lhumerus -31.5959 7.49679 79.1431
lradius 35.5795
lwrist 4.71638
lhand -18.1082 -7.53301
lfingers 7.12502
lthumb 8.16593 22.2892
rfemur -8.69736 27.8201 25.9456
rtibia 0.139808
rfoot -19.1551 -36.7884
rtoes 14.6394
lfemur -13.2504 -46.9517 7.72634
ltibia -4.42308
lfoot -9.41247 51.3254
ltoes 4.24456
